<?xml version="1.0" encoding="UTF-8" standalone="no"?>
<svg
   role="img"
   viewBox="0 0 24 24"
   version="1.1"
   id="svg1"
   sodipodi:docname="telegram.svg"
   inkscape:version="1.3.2 (091e20ef0f, 2023-11-25, custom)"
   xmlns:inkscape="http://www.inkscape.org/namespaces/inkscape"
   xmlns:sodipodi="http://sodipodi.sourceforge.net/DTD/sodipodi-0.dtd"
   xmlns="http://www.w3.org/2000/svg"
   xmlns:svg="http://www.w3.org/2000/svg">
  <defs
     id="defs1" />
  <sodipodi:namedview
     id="namedview1"
     pagecolor="#ffffff"
     bordercolor="#000000"
     borderopacity="0.25"
     inkscape:showpageshadow="2"
     inkscape:pageopacity="0.0"
     inkscape:pagecheckerboard="0"
     inkscape:deskcolor="#d1d1d1"
     inkscape:zoom="23.805929"
     inkscape:cx="8.8213319"
     inkscape:cy="14.450182"
     inkscape:window-width="1900"
     inkscape:window-height="988"
     inkscape:window-x="10"
     inkscape:window-y="48"
     inkscape:window-maximized="1"
     inkscape:current-layer="svg1"
     showguides="false" />
  <title
     id="title1">Telegram</title>
  <path
     d="m 12.001048,0.04767757 h 0.056 c -0.01867,-4.36e-5 -0.03733,-4.36e-5 -0.056,0 z m 4.962,7.22400043 c 0.1,-0.002 0.321,0.023 0.465,0.14 0.09569,0.0831 0.156712,0.199075 0.171,0.325 0.016,0.093 0.036,0.306 0.02,0.472 -0.18,1.897999 -0.962,6.501999 -1.36,8.626999 -0.168,0.900001 -0.499,1.201001 -0.82,1.230001 -0.696,0.065 -1.225,-0.46 -1.9,-0.902 -1.056,-0.693001 -1.653,-1.124001 -2.678,-1.800001 -1.1850001,-0.78 -0.417,-1.21 0.258,-1.91 0.177,-0.184 3.247,-2.977 3.307,-3.23 0.007,-0.032 0.014,-0.15 -0.056,-0.212 -0.07,-0.062 -0.174,-0.041 -0.249,-0.024 -0.106,0.024 -1.793,1.14 -5.0610001,3.345 -0.48,0.33 -0.913,0.49 -1.302,0.48 -0.428,-0.008 -1.252,-0.241 -1.865,-0.44 -0.752,-0.245 -1.348999,-0.374 -1.296999,-0.789 0.027,-0.216 0.324999,-0.437 0.892999,-0.663 3.498,-1.524 5.8300001,-2.528999 6.9980001,-3.013999 3.332,-1.386 4.025,-1.627 4.476,-1.635 z"
     id="path1-5"
     style="display:inline;fill:#ffffff;fill-opacity:1;stroke-width:0.8;stroke-dasharray:none"
     sodipodi:nodetypes="cccccccccccccscccccccc" />
  <path
     d="M 11.946667,0.57142154 A 11.428578,11.428578 0 0 0 0.57142232,11.999999 11.428578,11.428578 0 0 0 12,23.428577 11.428578,11.428578 0 0 0 23.428578,11.999999 11.428578,11.428578 0 0 0 12,0.57142154 a 11.428578,11.428578 0 0 0 -0.05333,0 z m 4.725717,6.88000376 c 0.09524,-0.0019 0.305714,0.021905 0.442857,0.1333334 a 0.48190503,0.48190503 0 0 1 0.162857,0.309524 c 0.01524,0.088572 0.03429,0.2914287 0.01905,0.449524 -0.171429,1.8076203 -0.916191,6.1923843 -1.295239,8.2161953 -0.16,0.857143 -0.475238,1.14381 -0.780953,1.171429 -0.662857,0.0619 -1.166667,-0.438096 -1.809525,-0.859048 -1.005714,-0.660001 -1.574286,-1.070477 -2.550477,-1.714287 -1.1285723,-0.742857 -0.397143,-1.152381 0.245714,-1.819048 0.168572,-0.175239 3.092383,-2.83524 3.149526,-3.076193 0.0067,-0.03048 0.01333,-0.142857 -0.05333,-0.201904 -0.06667,-0.05905 -0.165714,-0.03905 -0.237143,-0.02286 -0.100952,0.02286 -1.70762,1.085715 -4.8200023,3.185716 C 8.6885696,13.538095 8.2761884,13.690476 7.905712,13.680953 7.4980928,13.673333 6.7133304,13.451429 6.1295206,13.261905 5.4133297,13.028571 4.844758,12.905714 4.8942818,12.510476 c 0.025714,-0.205715 0.309524,-0.416191 0.8504767,-0.631429 3.3314304,-1.45143 5.5523835,-2.408573 6.6647655,-2.870478 3.173335,-1.3200007 3.833335,-1.5495246 4.26286,-1.5571437 z"
     id="path1"
     style="display:inline;fill:#32a9df;fill-opacity:1;stroke:#000000;stroke-width:0.267;stroke-dasharray:none;stroke-opacity:1" />
</svg>
