<?xml version="1.0" encoding="UTF-8" standalone="no"?>
<svg
   role="img"
   viewBox="0 0 24 24"
   version="1.1"
   id="svg1"
   sodipodi:docname="telegram.svg"
   inkscape:version="1.4.3 (0d15f75042, 2025-12-25)"
   xmlns:inkscape="http://www.inkscape.org/namespaces/inkscape"
   xmlns:sodipodi="http://sodipodi.sourceforge.net/DTD/sodipodi-0.dtd"
   xmlns="http://www.w3.org/2000/svg"
   xmlns:svg="http://www.w3.org/2000/svg">
  <defs
     id="defs1" />
  <sodipodi:namedview
     id="namedview1"
     pagecolor="#ffffff"
     bordercolor="#000000"
     borderopacity="0.25"
     inkscape:showpageshadow="2"
     inkscape:pageopacity="0.0"
     inkscape:pagecheckerboard="0"
     inkscape:deskcolor="#d1d1d1"
     inkscape:zoom="16.833334"
     inkscape:cx="4.3366335"
     inkscape:cy="8.762376"
     inkscape:window-width="1920"
     inkscape:window-height="1012"
     inkscape:window-x="0"
     inkscape:window-y="0"
     inkscape:window-maximized="1"
     inkscape:current-layer="svg1"
     showguides="false" />
  <title
     id="title1">Telegram</title>
  <path
     d="M 11.946667,0.57142154 C 5.6556758,0.60077979 0.57135411,5.7089393 0.57142232,11.999999 c 0,6.311829 5.11674848,11.428578 11.42857768,11.428578 6.311829,0 11.428578,-5.116749 11.428578,-11.428578 C 23.428578,5.6881699 18.311829,0.57142154 12,0.57142154 c -0.01778,-4.148e-5 -0.03555,-4.148e-5 -0.05333,0 z"
     id="path1"
     style="display:inline;fill:#32a9df;fill-opacity:1;stroke:none;stroke-width:0.267;stroke-dasharray:none;stroke-opacity:1"
     sodipodi:nodetypes="scsscss" />
  <path
     d="m 17.977109,6.336337 c 0.117322,-0.00235 0.376604,0.026984 0.545548,0.164251 0.112265,0.097495 0.183857,0.233559 0.20062,0.3812969 0.01877,0.1091096 0.04224,0.3590057 0.02347,0.5537604 -0.21118,2.2267727 -1.128639,7.6282837 -1.595581,10.1213787 -0.197101,1.0559 -0.585437,1.409039 -0.962041,1.443063 -0.816562,0.07626 -1.437196,-0.539682 -2.229121,-1.058246 -1.238921,-0.813043 -1.939334,-1.318701 -3.141886,-2.111799 -1.3902674,-0.915113 -0.489233,-1.419598 0.302691,-2.240853 0.20766,-0.215872 3.809449,-3.492679 3.879843,-3.7895041 0.0082,-0.037543 0.01642,-0.1759832 -0.0657,-0.2487229 C 14.852832,9.478222 14.730812,9.50286 14.64282,9.522805 14.518453,9.550962 12.539228,10.860277 8.7051413,13.44723 8.1419952,13.834393 7.6339904,14.022108 7.1776073,14.010376 6.6754686,14.00099 5.7087343,13.72763 4.9895497,13.494159 4.1072874,13.206719 3.4068755,13.055374 3.467883,12.568487 3.49956,12.315071 3.8491787,12.055789 4.5155684,11.790641 8.6194962,10.002652 11.355448,8.823566 12.725771,8.2545537 16.634944,6.6284691 17.447986,6.3457228 17.977109,6.336337 Z"
     id="path1-5"
     style="display:inline;fill:#ffffff;fill-opacity:1;stroke:none;stroke-width:0.938577;stroke-dasharray:none"
     sodipodi:nodetypes="ccccccccccscccccccc" />
</svg>
