<?xml version="1.0" encoding="utf-8"?>
<!-- Generator: Adobe Illustrator 23.0.1, SVG Export Plug-In . SVG Version: 6.00 Build 0)  -->
<svg version="1.1" id="Layer_1" xmlns="http://www.w3.org/2000/svg" xmlns:xlink="http://www.w3.org/1999/xlink" x="0px" y="0px"
	 viewBox="0 0 14400 14400" style="enable-background:new 0 0 14400 14400;" xml:space="preserve">
<style type="text/css">
	.st0{fill:#FBC932;}
	.st1{fill:#F4E19C;}
	.st2{fill:#F4E19B;}
	.st3{fill:#110C07;}
	.st4{fill:#180E09;}
	.st5{fill:#67B234;}
	.st6{fill:#FD3636;}
	.st7{fill:#FC3636;}
	.st8{fill:#66B234;}
	.st9{fill:#66B233;}
	.st10{fill:#67B233;}
	.st11{fill:#220907;}
	.st12{fill:#F93636;}
	.st13{fill:#67B033;}
	.st14{fill:#F73537;}
	.st15{fill:#F83736;}
	.st16{fill:#DCDFDE;}
	.st17{fill:#5C191B;}
	.st18{fill:#67B133;}
</style>
<g>
	<path class="st0" d="M8158.5,7740.5c-637.83,0-1275.67,0-1913.5,0.09c-3.75,0-4.59-0.84-4.59-4.59c0.1-357,0.1-714,0-1071
		c0-3.75,0.84-4.59,4.59-4.59c637.83,0.1,1275.67,0.09,1913.5,0.09c1.54,2.08,0.96,4.5,0.97,6.78c0.04,36.47,0.02,72.95,0.04,109.42
		c0,2.3-0.44,4.7,0.99,6.8c0,287,0,574,0,861c-1.52,1.9-0.98,4.15-0.98,6.27c-0.04,27.82-0.01,55.64-0.04,83.46
		C8159.47,7736.34,8159.96,7738.59,8158.5,7740.5z"/>
	<path class="st1" d="M8160.5,6783.5c-2.7-1.47-1.82-4.07-1.82-6.26c-0.05-36.75-0.03-73.51-0.04-110.26c0-2.16-0.09-4.32-0.14-6.48
		c0.98,0.08,2.15-0.55,2.07,1.5c-0.21,4.82-0.07,9.66-0.07,14.5C8160.5,6712.17,8160.5,6747.83,8160.5,6783.5z"/>
	<path class="st2" d="M8158.5,7740.5c0.05-30.18,0.07-60.36,0.21-90.54c0.01-1.87-1.34-4.49,1.79-5.46c0,30.83,0.02,61.67-0.07,92.5
		C8160.42,7738.22,8162.03,7740.97,8158.5,7740.5z"/>
	<path class="st3" d="M7146.08,6859.84c-0.26,1.41-1.12,1.55-1.93,1.63c-30.14,3.13-49.32,20.58-60.97,47.32
		c-8.29,19.03-10.26,39.07-8.01,59.63c1.01,9.24,2.55,18.32,5.86,27.07c-1.42-12.36-2.53-24.72-0.72-37.1
		c4.96-33.85,19.72-61.04,52.74-74.93c18.77-7.9,38.25-7.98,57.75-2.22c2.04,0.6,3.97,1.41,6.29,0.69
		c21.42-6.62,34.55,3.86,43.65,20c4.35,7.71,7.02,16.09,10.11,24.55c0.33-5.17,0.86-10.26,1.55-15.34
		c1.26-9.31,3.44-18.28,8.85-26.18c2.84-4.15,6.51-7.13,11.55-8.04c1.48-0.26,3.28-1.06,4.64,1.08c-2.86,1.86-6.48,1.11-9.21,3.13
		c-6.58,4.87-9.55,11.94-11.37,19.37c-4.84,19.7-4.06,39.58-0.89,59.45c0.01,0.07,0.29,0.1,1,0.31c2.09-8.79,4.36-17.52,7.53-25.97
		c4.96-13.19,11.31-25.6,21.09-35.92c8.52-8.98,18.46-15.34,31.45-14.89c5.49,0.19,10.61,1.82,15.14,5.05
		c-0.78,1.75-1.73,1.22-2.6,0.8c-14.07-6.78-26.48-3.23-37.77,6.3c-12.49,10.54-19.48,24.73-25.19,39.56
		c-4.3,11.16-7.31,22.74-8.85,35.92c5-8.5,9.43-16.02,14.88-22.87c17.5-21.98,38.84-38.37,66.82-44.24
		c22.07-4.63,42.62-0.61,60.74,13.46c0.53,0.41,1.1,0.77,1.56,1.24c0.75,0.75,2.35,1.41,1.13,2.7c-0.95,1.01-1.69-0.33-2.45-0.86
		c-3.27-2.29-6.38-4.86-9.84-6.8c-20.7-11.61-42.31-11.87-63.99-3.68c-27.8,10.49-47.72,30.32-62.85,55.39
		c-0.31,0.52-0.7,1.18,0.21,2.2c5.88-7.41,12.18-14.36,19.4-20.41c19.98-16.76,42.55-26.62,69.06-24.74
		c24.9,1.76,44.33,13.87,59.44,33.36c0.82,1.05,1.75,2.06,2.35,3.23c4.28,8.22,10.56,14.28,18.06,19.84
		c9.71,7.21,11.36,18.22,9.92,29.75c-1.49,11.94-6.57,22.53-12.65,33.17c2.16,0.37,2.81-1.27,3.76-2.09
		c9.11-7.86,18.34-15.56,30.28-18.76c5.91-1.58,11.87-1.95,17.23,1.94c1.27,0.92,2.82,1.74,2.54,4.48
		c-13.2-10.58-24.48-3.39-35.14,3.59c-14.91,9.77-26.59,23.07-37.26,37.24c-0.39,0.51-0.92,0.99-0.15,2.12
		c8.95-5.58,18.09-10.94,27.94-14.86c16.25-6.46,32.81-11.25,50.55-7.08c11.47,2.69,19.59,9.5,24.19,20.39
		c0.62,1.47,1.57,2.98,0.48,4.67c-2.02,0.02-1.8-1.79-2.22-2.86c-5.27-13.46-15.65-19.78-29.53-21.02
		c-21.19-1.9-39.87,5.88-57.97,15.51c-6.7,3.57-13.3,7.42-18.98,12.77c6.26-1.17,12.32-3.03,18.6-3.89
		c34.93-4.78,67.85-1.06,95.44,23.53c13.57,12.09,21.24,27.48,23,45.67c0.1,1.06,0.66,2.3-0.65,3.11c-1.54-0.06-1.27-1.25-1.38-2.17
		c-4.1-32.49-23.53-52.41-53.13-63.11c-26.86-9.72-54.1-8.38-81.16,0.19c4.96-0.46,9.92-1.07,14.89-1.34
		c25.48-1.37,49.41,3.41,70.26,18.93c23.6,17.57,34,41.49,32.79,70.67c-0.3,7.18-1.6,14.22-3.63,21.1c-0.82,2.8-0.92,5.48-0.24,8.33
		c4.02,16.69-0.89,29.2-15.24,38.72c-8.53,5.66-17.89,9.48-27.83,11.93c-0.89,0.22-2.08-0.09-2.5,1.61
		c10.29,0.44,20.47,1.28,30.27,4.43c5.92,1.9,11.44,4.59,15.77,9.24c3.33,3.58,4.79,7.68,3.75,12.65c-0.73-0.16-1.29-0.2-1.3-0.29
		c-1-12.12-9.82-16.71-19.7-19.58c-17.71-5.16-35.83-4.77-53.97-2.71c-1.48,0.17-2.95,0.42-4.43,0.58
		c-1.29,0.14-2.68-0.09-4.36,1.51c8.24,1.83,15.93,3.84,23.43,6.46c15.72,5.5,30.38,12.88,42,25.13
		c9.87,10.41,14.6,22.53,10.43,36.95c-0.73,2.52-1.4,5.39-4.09,6.88c-1.38-1.38-0.35-2.4,0.09-3.37c6.18-13.34,3.1-25.25-5.7-36.17
		c-9.49-11.77-22.37-18.68-35.97-24.4c-12.12-5.1-24.71-8.61-38-9.78c7.52,4.82,15.12,9.46,21.97,15.13
		c20.34,16.83,36.15,36.85,42.19,63.11c5.24,22.81,2.1,44.26-12.76,63.17c-0.31,0.39-0.57,0.83-0.92,1.19
		c-0.86,0.91-1.66,2.86-3,1.84c-1.61-1.22,0.4-2.23,1.13-3.12c6.18-7.59,10.7-16.06,13.1-25.54c4.99-19.72,1.97-38.52-6.86-56.6
		c-12.28-25.14-31.95-42.92-56.38-55.96c2.01,1.67,4.04,3.33,6.04,5.03c2.16,1.83,4.36,3.61,6.42,5.54
		c17.06,15.96,29.7,34.62,33.9,57.98c6.09,33.91-5.62,61-32.51,81.95c-1.05,0.82-2.1,1.66-3.26,2.3
		c-7.45,4.15-13.39,9.55-18.46,16.71c-7.65,10.79-19.47,12.51-31.87,10.67c-11.46-1.7-21.75-6.61-32.14-11.83
		c3.87,4.84,7.89,9.56,11.56,14.54c4.87,6.6,8.78,13.72,10.33,21.92c1.45,7.64-0.67,13.51-6.12,16.97c-0.61-0.48-0.81-1.3-0.39-1.74
		c6.33-6.53,5.36-13.88,2.36-21.37c-4.54-11.33-12.19-20.54-20.53-29.21c-7.51-7.79-15.67-14.85-24.91-21.48
		c-0.19,2.67,1.42,4.03,2.35,5.59c9.66,16.09,17.51,32.91,19.95,51.74c1.34,10.35,1,20.58-3.83,30.26
		c-4.01,8.05-10.28,13.37-18.58,16.47c-1.04,0.39-2.15,1.03-3.2-0.03c-0.22-1.1,0.49-1.44,1.32-1.73
		c16.12-5.68,22.21-18.27,22.57-34.12c0.45-19.76-6.95-37.42-16.21-54.37c-3.56-6.53-7.43-12.92-12.82-19.6
		c1.63,8.38,3.92,15.58,4.87,23.05c3.93,31.07,0.11,60.56-19.02,86.38c-12.34,16.67-29.2,26.44-50.04,28.77
		c-1.29,0.14-2.65,0.51-3.85-0.38c-0.31-1.57,0.9-1.56,1.82-1.67c35.89-4.28,55.43-26.82,65.46-59.38
		c7.2-23.37,5.62-46.97-0.11-70.44c-0.27-1.09-0.84-2.1-1.59-3.12c0.97,9.99,1.49,19.97,0.94,29.96c-1.86,33.67-21,69.5-55.16,81.62
		c-17.5,6.21-35.14,7.14-53,2.12c-4.42-1.24-8.53-1.56-13.15-0.47c-15.25,3.59-27.82-2.16-36.96-16.28
		c-2.9-4.49-5.34-9.24-7.26-14.2c-1.91-4.92-3.4-10-5.51-16.29c-1.3,9.13-1.05,17.21-3.03,25c-1.69,6.66-3.82,13.1-7.98,18.67
		c-4.43,5.93-10.12,8.19-15.58,6.29c0.12-0.28,0.22-0.8,0.37-0.82c15.36-1.64,18.29-13.87,20.91-25.56
		c3.96-17.7,3.51-32.54-0.24-58.08c-2.88,10.35-4.97,19.95-8.56,29.1c-6.02,15.35-13.68,29.65-26.68,40.3
		c-10.28,8.42-21.86,11.77-34.95,7.38c-0.94-0.32-1.94-0.62-2.74-1.17c-0.98-0.68-3.22-0.77-2.54-2.41c0.8-1.92,2.25-0.16,3.3,0.28
		c9.64,4.1,19.11,3.92,28.37-1.11c7.46-4.04,13.46-9.78,18.38-16.6c13.34-18.51,20.02-39.61,23.72-61.83
		c0.04-0.27-0.16-0.57-0.49-1.62c-4.41,7.98-9,15.23-14.36,21.93c-16.74,20.93-36.97,36.93-63.54,43.24
		c-23.23,5.52-44.94,2.19-64.12-12.98c-1.5-1.19-1.49-1.2-2.69-3.63c1.67-1.02,2.45,0.59,3.35,1.29
		c21.9,17.21,46.16,19.38,71.69,10.48c26.36-9.19,45.77-27.22,60.91-50.22c2.18-3.31,4.14-6.76,5.87-10.4
		c-6.21,6.95-12.03,14.2-19,20.41c-18.35,16.35-39.23,27.17-64.2,27.5c-32.8,0.43-56.66-15.46-73.44-42.8
		c-2.59-4.21-5.31-7.59-9.69-10.16c-12.42-7.29-17.23-21-13.91-37.04c1.94-9.4,5.75-18.01,10.29-26.36
		c0.51-0.94,1.66-1.74,0.82-3.48c-6.36,5.46-12.5,11-19.61,15.24c-6.8,4.05-13.91,7.29-22.02,6.94c-4.69-0.2-9-1.64-11.45-6.13
		c0.74-0.95,1.39-0.97,1.93-0.46c5.71,5.41,12.2,5.22,19.11,2.87c9.99-3.4,18.2-9.52,26.01-16.38c10.27-9.02,19.09-19.28,26.88-30.6
		c-7.96,4.76-15.99,9.32-24.4,13.14c-14.56,6.61-29.61,11.34-45.81,10.43c-14.94-0.84-27.13-6.46-33.24-21.3
		c-0.44-1.07-0.8-2.18-1.08-3.3c-0.1-0.42,0.15-0.93,0.23-1.37c1.57-0.4,1.76,0.86,2.04,1.66c5.41,15.62,17.66,21.44,32.85,22.12
		c17.98,0.8,34.37-5.34,50.1-13.32c8.29-4.21,16.36-8.85,24.78-15.5c-8.25,1.7-15.15,3.57-22.16,4.5
		c-31.55,4.21-61.57,0.52-87.7-19.38c-16.5-12.57-26.34-29.31-28.12-50.32c-0.09-1.06-0.77-2.33,0.71-3.04
		c1.43,0.17,1.32,1.29,1.42,2.24c3.61,32.34,23.02,51.92,52.09,62.81c25.96,9.72,52.52,8.71,79.02,1.66
		c0.43-0.11,0.78-0.53,2.48-1.72c-8.86,1.41-16.35,1.72-23.87,1.72c-23.77-0.03-45.6-6.42-64-21.57
		c-27.07-22.29-34.32-51.52-27.12-84.96c1.16-5.37,2.02-10.27,0.73-15.95c-3.2-14.16,2.33-25.4,13.77-33.91
		c8.39-6.25,17.86-10.19,27.86-13.01c1.58-0.44,3.13-0.94,5.98-1.81c-10.93-1.27-20.74-1.14-30.06-4.25
		c-6.5-2.17-12.88-4.58-17.56-9.92c-3.05-3.47-4.38-7.47-3.82-12.27c0.9,0.24,1.42,0.29,1.43,0.4c1.28,10.92,8.85,15.73,18.23,18.75
		c16.67,5.37,33.77,5.16,50.94,3.72c4.63-0.39,9.22-1.15,13.89-2.07c-10.36-2.76-20.77-5.29-30.65-9.44
		c-15.83-6.64-30.67-14.74-40.64-29.42c-7.1-10.46-9.09-21.64-3.64-33.52c0.58-1.26,0.75-3.05,2.73-3.16
		c1.21,1.15,0.19,2.13-0.26,3.12c-5.94,13.17-2.97,24.94,5.64,35.8c7.3,9.21,16.88,15.46,27.24,20.61
		c14.84,7.37,30.54,11.98,47.2,14.52c-1-2.94-4.17-2.47-5.43-4.53c1.86-2.62,3.69,0.75,5.89-0.07
		c-7.27-5.87-14.32-11.67-20.32-18.59c-15.81-18.24-26.37-38.68-26.8-63.42c-0.51-29.15,12.32-51.45,35.19-68.6
		c0.8-0.6,1.6-1.2,2.47-1.69c7.31-4.06,13.04-9.43,18.03-16.42c8.37-11.72,21.11-12.73,34.26-10.39c9.1,1.61,17.4,5.47,25.49,9.78
		c1.29,0.68,2.4,1.78,4.41,1.76c-4.22-5.33-8.42-10.32-12.27-15.57c-4.98-6.77-8.85-14.11-9.88-22.63
		c-0.88-7.36,1.41-12.58,6.63-15.2c0.08,0.49,0.36,1.13,0.18,1.32c-6.83,7.05-5.39,14.97-2.01,22.76
		c6.71,15.5,18.37,27.17,30.73,38.16c4.51,4.01,9.01,8.11,14.61,10.88c-5.15-8.92-10.32-17.75-14.25-27.21
		c-6.25-15.06-10.71-30.52-8.43-47.06c1.8-13.03,7.96-23.2,20.6-28.51c1.61-0.68,3.25-1.68,5.19-0.99c0.08,2.01-1.56,1.94-2.69,2.37
		c-13.31,5.13-19.61,15.45-20.95,29.05c-2.05,20.79,5.31,39.3,14.75,57.15c3.76,7.1,7.85,14.08,13.29,20.23
		c-1.83-8.61-3.97-17.09-4.77-25.8c-2.78-30.24,1.25-58.92,20.52-83.66c12.18-15.64,28.32-24.88,48.14-27.32
		C7143.02,6859.23,7144.54,6858.78,7146.08,6859.84z"/>
	<path class="st4" d="M6962.79,7138.5c-6.62-3.31-11.59-7.1-16.4-11.02c-19.67-16.05-34.74-35.45-41.26-60.34
		c-6.22-23.75-3.16-46.16,12.37-66.02c0.71-0.91,1.48-1.8,2.31-2.6c0.3-0.29,0.88-0.29,1.31-0.41c1.13,1.37,0.07,2.19-0.62,3.08
		c-19.93,25.47-20.18,52.84-7.27,81.13c9.8,21.46,25.58,37.89,45.04,50.97C6959.83,7134.32,6962.04,7134.79,6962.79,7138.5z"/>
	<path class="st5" d="M6997.48,7195.63c11.55-9.81,33.43-9.2,42.91,0.9c3.36,3.58,2.84,5.41-1.81,7.02
		c-4.17,1.45-8.16,0.97-12.19-0.53c-1.19-0.45-2.64-2.51-3.79-0.44c-0.9,1.6,0.99,2.71,2,3.62c4.92,4.41,10.78,7.19,17.1,8.89
		c7.65,2.05,15.46,2.41,23.15,0.31c5.24-1.43,9.97-3.79,11.83-9.61c1.6-5.02,1.1-5.93-4.06-6.3c-8.73-0.62-15.98-4.33-21.86-10.69
		c-1.32-1.43-2.25-3.29-3.13-5.06c-0.81-1.62-1.88-3.55-0.8-5.22c1.36-2.09,3.35-0.34,5-0.03c9.53,1.82,18.73,4.64,27.23,9.44
		c2.02,1.14,4.03,2.38,5.8,3.87c7.84,6.59,8.67,12.47,2.75,20.83c-8.79,12.42-21.44,20.08-34.13,27.86
		c-18.85,11.56-39.53,11.94-60.45,10.67c-18.11-1.09-35.51-5.46-51.74-13.8c-14.13-7.25-26.19-16.83-33.88-31.38
		c2.96,1.44,5.98,2.02,9.15,1.75c3.42-0.29,6.31-1.82,7.55-4.97c3.43-8.73,10.81-12.88,18.64-16.33
		c15.06-6.64,31.04-9.47,47.35-11.02c14.32-1.36,28.59-1.22,42.87,0.09c2.97,0.27,5.93,0.76,8.9,1.1c1.63,0.19,2.25,1.18,2.43,2.67
		c1.34,11.34,9.32,16.66,18.8,20.45c2.43,0.98,5.13,1.38,7.75,1.8c4.17,0.66,4.98,2.24,2.56,5.9c-3.02,4.56-7.88,6.11-12.85,6.72
		c-10.78,1.32-20.97-0.53-31.24-7.35c4.75-0.43,8.41,0.01,11.76-1.7c4.82-2.46,5.46-5.31,1.86-9.34
		c-7.95-8.89-18.32-10.37-29.3-8.99c-9.27,1.17-17.84,4.96-24.74,11.1c-9.24,8.22-19.18,7.82-29.87,4.63
		c-1.43-0.43-3.19-2.5-4.31-0.35c-0.96,1.84,1.32,2.9,2.6,3.68c14.32,8.79,29.68,12.5,46.27,8.44c4.1-1,8.37-2.82,9.16-8.06
		c0.63-4.16-0.53-7.29-5-8.37C7004.42,7197.06,7001.07,7196.4,6997.48,7195.63z"/>
	<path class="st5" d="M7206.13,7493.95c1.44-3.03,1.73-6.09,1.44-9.24c-0.3-3.23-1.64-5.89-4.74-7.05
		c-6.92-2.58-10.85-8.07-14.1-14.18c-7.13-13.44-10.21-28.05-12.26-42.96c-2.36-17.06-2.82-34.15-1.03-51.28
		c0.33-3.14,0.8-6.26,1.1-9.4c0.13-1.36,0.59-1.98,2.03-2.26c14.74-2.81,20.46-13.46,22.92-26.77c0.86-4.62,2.47-5.37,6.32-2.38
		c3.8,2.95,4.96,7.28,6.07,11.71c2.16,8.61-1.58,26.29-7.24,30.83c-0.2-3.36-0.03-6.48-1.23-9.42c-2.37-5.82-5.54-6.67-10.15-2.54
		c-5.66,5.07-8.15,11.57-8.81,18.98c-1.19,13.4,3.37,25.05,11.66,35.1c7.62,9.23,7.69,18.92,4.07,29.45
		c-0.49,1.42-2.47,3.25-0.69,4.41c2.15,1.41,3.19-1.12,4.06-2.53c9.24-14.92,13.12-30.78,8.14-48.11c-0.61-2.11-1.8-3.94-3.44-5.42
		c-4.74-4.26-10.47-2.74-12.72,3.19c-1.19,3.13-0.49,6.66-2.24,9.68c-9.63-12.44-8.96-33.19,1.31-42.67c3.42-3.15,5.23-2.73,6.8,1.6
		c1.55,4.28,1.17,8.5-0.5,12.65c-0.48,1.18-1.46,2.19-1.11,4.02c3.38-0.69,5.18-3.22,6.7-5.48c7.75-11.49,9.98-24.14,6.84-37.61
		c-1.14-4.88-3.82-8.89-8.58-11.04c-4.87-2.2-6.88-0.87-7.38,4.28c-0.85,8.83-4.71,16.21-11.48,21.99c-1.12,0.95-2.49,1.7-3.87,2.23
		c-1.93,0.74-4.08,2.58-5.98,0.96c-1.63-1.38,0.16-3.42,0.45-5.14c1.5-8.75,4.23-17.09,8.23-25.03c1.96-3.9,4.21-7.52,7.57-10.43
		c5.3-4.58,9.78-5.08,15.96-1.57c6.35,3.6,11.36,8.75,15.78,14.38c10.54,13.44,20.75,27.65,23.39,44.67
		c5.63,36.27,0.92,71.08-20.36,102.2C7223.23,7482.29,7215.75,7489.26,7206.13,7493.95z"/>
	<path class="st5" d="M7411.93,7405.03c-1.16-2.32-1.79-4.07-2.81-5.56c-2.56-3.73-6.29-6.31-10.64-4.57
		c-10.69,4.28-20.39,0.89-29.86-3.28c-14.89-6.56-27.88-16.17-40.19-26.7c-10.79-9.23-20.43-19.56-29.41-30.54
		c-2.67-3.27-3.58-5.65-1.13-10.26c5.72-10.77,2.56-21.27-3.93-30.98c-1.02-1.53-3.81-2.74-2.37-4.93c1.42-2.17,4.25-2.64,6.77-2.34
		c3.32,0.4,6.45,1.64,9.22,3.56c9.35,6.5,15.53,15.13,18.36,27.47c-2.98-2.1-5.06-3.54-7.11-5.02c-2.34-1.68-5.07-2.3-7.55-1.13
		c-2.81,1.32-2.65,4.43-2.6,7.06c0.22,10.91,5.95,18.85,14.24,25.13c7.18,5.44,15.46,8.96,24.38,9.46
		c12.82,0.71,20.32,7.86,25.61,18.51c0.6,1.22,0.47,3.54,2.57,2.97c1.87-0.5,1.25-2.65,0.98-3.89
		c-3.79-17.39-12.52-31.38-28.43-40.18c-2.48-1.37-5.35-1.86-8.25-1.03c-5.08,1.45-7.02,5.48-4.82,10.28
		c0.76,1.65,1.78,3.19,2.69,4.77c0.87,1.52,2.64,2.44,2.95,4.39c-15.27-2.51-27.55-14.39-29.51-28.5c-0.34-2.49-0.88-5.45,1.38-6.93
		c2.4-1.58,4.74,0.44,6.73,1.95c2.95,2.23,5.57,4.75,6.48,8.55c0.27,1.13,0.69,2.23,2.51,2.49c1.2-4.6,0.61-9.11-0.89-13.45
		c-4.13-11.92-11.11-21.55-22.79-27.14c-4.44-2.13-8.93-2.61-13.33,0.19c-2.89,1.84-3.77,3.6-1.03,6.72
		c5.58,6.33,8.42,13.88,8.23,22.44c-0.01,0.67,0.03,1.34-0.08,2c-0.59,3.5-1.4,7.87-4.54,8.89c-2.34,0.76-3.56-3.74-5.02-6.04
		c-6.25-9.88-12.02-20.01-12.28-32.15c-0.2-9.06,2.66-12.64,11.61-14.58c11.16-2.42,22.12-0.4,33.18,1.33
		c28.75,4.51,49.08,21.58,66.29,43.5c12.08,15.38,21.1,32.25,25.36,51.52C7415.25,7379.68,7415.14,7394.74,7411.93,7405.03z"/>
	<path class="st5" d="M7053.06,7341.1c2.52-15.11,14.76-27.92,28.41-29.9c2.68-0.39,5.9-0.91,7.39,1.46
		c1.59,2.53-0.95,4.96-2.34,7.13c-2.51,3.92-6.86,5.47-11.95,8.05c5.69,1.72,10.1,1.03,14.37-0.43
		c12.1-4.12,22.02-11.03,27.47-23.02c2.15-4.71,2.41-9.64-0.99-14.14c-1.73-2.29-3.3-2.63-5.63-0.45
		c-6.49,6.08-14.29,8.98-23.23,8.6c-0.5-0.02-1.01,0.01-1.5-0.08c-3.46-0.65-7.9-1.19-8.87-4.51c-0.76-2.6,3.66-3.73,5.94-5.1
		c10.42-6.27,20.9-12.53,33.72-12.23c6.85,0.16,10.49,2.76,12.4,9.33c2.86,9.84,2.26,19.85,0.21,29.67
		c-3.19,15.28-5.98,30.84-16.14,43.51c-22.18,27.64-48.88,48.53-84.79,54.82c-10.01,1.75-20.19,1.47-30.32-1.29
		c0.77-2.15,2.73-1.94,4.01-2.71c4.86-2.92,7.18-7.66,5.02-12.67c-2.59-5.99-1.64-11.68-0.11-17.54
		c3.9-14.98,12.26-27.62,21.34-39.77c11.81-15.81,25.67-29.69,41.2-41.89c2.63-2.07,4.49-2.73,7.74-0.45
		c8.04,5.63,22.93,3.62,32.32-3.64c1.32-1.02,2.43-3.4,4.49-2.1c1.71,1.08,2.07,3.24,2.25,5.33c0.28,3.36-1.16,6.2-2.53,9.01
		c-4.53,9.31-17.74,18.36-28.64,19.7c1.83-2.25,3.66-4.35,5.32-6.58c1.79-2.4,2.69-5.13,1.12-7.92c-1.57-2.78-4.65-2.49-7.17-2.42
		c-12.14,0.34-20.46,7.2-26.85,16.73c-4.72,7.04-7.2,15.05-7.92,23.43c-1.05,12.3-8.45,19.38-18.85,24.24
		c-1.14,0.53-3.07,0.4-2.75,2.19c0.33,1.81,2.21,1.14,3.36,1.05c6.77-0.55,12.83-3.28,18.68-6.5c8.27-4.56,15.47-10.34,20.66-18.38
		c1.28-1.99,2.16-4.11,2.76-6.38c1.03-3.9,0.29-7.32-2.92-9.88c-2.98-2.38-6.08-1.16-8.88,0.42
		C7058.18,7337.33,7055.72,7339.27,7053.06,7341.1z"/>
	<path class="st5" d="M7075.29,7084.23c3.51,2.25,5.53,5.04,8.66,6.39c5.49,2.36,8.44,0.72,8.64-5.21
		c0.49-14.5-7.92-23.44-19.45-30.17c-6.25-3.65-13.2-5.83-20.36-6.29c-12.22-0.8-19.15-8.09-24.19-18.15
		c-0.69-1.37-0.55-3.93-2.91-3.14c-2.1,0.7-1.01,2.77-0.68,4.33c3.33,15.42,11.17,27.96,23.91,37.35c0.93,0.69,1.93,1.31,2.96,1.84
		c5.75,2.96,10.67,2.65,13.79-0.84c2.97-3.32,2.51-6.3-1.9-12.44c-1.13-1.58-2.29-3.13-4.04-5.52
		c14.54,4.56,25.75,11.33,29.98,26.11c0.14,0.48,0.39,0.96,0.4,1.44c0.08,3.06,1.7,7.16-1.26,8.8c-3.49,1.93-6.43-1.52-8.94-3.82
		c-1.94-1.78-3.57-3.96-4.33-6.61c-0.31-1.09-0.31-2.7-1.86-2.48c-1.91,0.27-1.11,2.1-1.23,3.28c-0.37,3.55,0.44,7.03,1.6,10.28
		c4.05,11.32,10.65,20.69,21.6,26.4c4.66,2.43,9.54,3.1,14.31,0.51c2.93-1.59,4.49-3.46,1.25-6.89c-6.12-6.48-8.5-14.52-7.99-23.41
		c0.07-1.16,0.13-2.36,0.48-3.45c0.8-2.54,1.72-5.88,4.07-6.45c1.99-0.48,3.08,2.99,4.23,4.84c5.92,9.47,11.09,19.27,13.07,30.5
		c1.57,8.86-2.02,15.15-10.75,17.25c-13.91,3.34-27.36,0.1-40.95-2.71c-27.36-5.66-45.38-23.93-61.63-44.66
		c-11.67-14.88-19.71-31.53-23.48-50.18c-2.27-11.25-2.48-22.37,0.92-33.85c1.76,0.96,1.71,2.83,2.44,4.08
		c2.61,4.51,6.8,6.78,11.36,5.12c11.73-4.27,22.09-0.14,32.12,4.63c20.23,9.63,37.33,23.69,52.76,39.76
		c5.98,6.23,11.98,12.5,16.81,19.75c0.85,1.28,1.79,2.18,0.62,3.92c-7.92,11.82-4.93,23.01,2.12,33.94c1,1.55,3.62,2.76,2.37,4.91
		c-1.26,2.16-3.96,2.24-6.33,2.17c-3.24-0.1-6.22-1.17-8.9-2.92C7084.52,7106.09,7078.24,7096.88,7075.29,7084.23z"/>
	<path class="st6" d="M7493.06,7195.2c-3.07-0.83-6.11-2.38-9.51-1.16c-2.62,0.94-5,2.2-6.05,4.77
		c-3.53,8.59-10.86,12.78-18.68,16.29c-16.33,7.33-33.79,9.88-51.4,11.46c-15.13,1.36-30.27,0.8-45.35-1.16
		c-2.68-0.35-4.03-0.79-4.76-4.17c-2.3-10.59-10.06-16.4-19.86-19.76c-2.34-0.8-4.85-1.24-7.32-1.54c-4.27-0.52-4.01-2.69-2.17-5.45
		c2.57-3.85,6.49-5.69,10.83-6.5c10.67-1.98,20.83-0.4,30.35,4.9c0.67,0.38,1.58,0.69,1.3,2.18c-3.29,0.19-6.8-0.06-10.01,1.38
		c-4.55,2.05-5.37,5.23-2.18,9.01c7.54,8.92,17.6,10.92,28.47,9.57c10.65-1.32,19.83-6.07,28.09-12.99
		c7.82-6.54,16.98-5.61,26.12-3.34c0.8,0.2,1.53,0.65,2.32,0.91c1.2,0.4,2.69,1.71,3.63,0.33c1.13-1.66-0.64-2.75-1.79-3.5
		c-14.25-9.32-29.68-13.07-46.54-9.51c-2.93,0.62-5.63,2.04-7.73,4.36c-4.27,4.73-2.89,10.4,3.11,12.56
		c3.1,1.12,6.28,1.93,10.09,1.77c-12.4,9.69-32.95,10.6-43.56-1.15c-2.5-2.77-1.95-4.81,1.44-5.94c4.9-1.63,9.82-1.59,14.51,0.8
		c0.97,0.49,1.88,1.09,2.6,0.08c0.72-1-0.17-1.82-0.86-2.57c-5.4-5.88-12.44-8.87-19.92-10.69c-8.89-2.17-17.82-2.3-26.36,1.77
		c-3.58,1.71-6.48,4.19-7.38,8.26c-0.77,3.51-0.41,5.93,4.38,6.16c9.43,0.45,17.28,4.53,22.93,12.24c1.84,2.51,4.45,5.9,2.79,8.47
		c-1.27,1.99-5.22,0.15-7.88-0.51c-10.99-2.73-21.92-5.71-30.73-13.36c-6.85-5.94-7.65-11.18-2.89-18.89
		c5.73-9.25,14.23-15.64,23.05-21.67c7.72-5.28,15.98-9.56,24.42-13.51c7.7-3.6,16.06-4.17,24.36-4.64
		c30.05-1.71,58.74,2.89,84.67,19.22c9.09,5.72,16.76,13.05,22.66,22.12c0.45,0.69,0.86,1.41,1.19,2.16
		C7493.55,7194.18,7493.28,7194.55,7493.06,7195.2z"/>
	<path class="st5" d="M7194.2,7031.12c1.04,3.64,0.78,7.41,2.55,10.66c2.26,4.15,4.81,4.7,8.4,1.65
		c8.68-7.37,11.25-17.19,9.98-27.93c-1.17-9.91-4.96-19.11-11.59-26.65c-8.07-9.17-7.95-19.14-4.31-29.83
		c0.48-1.41,2.43-3.21,0.41-4.36c-1.82-1.04-2.97,1.09-3.79,2.42c-8.5,13.79-12.64,28.58-9.17,44.76
		c1.08,5.04,2.94,10.16,9.34,10.95c3.48,0.43,6.08-0.56,7.46-4.25c1.34-3.6,1.99-7.28,2.18-11.3c8.45,10.88,9.68,28.85,2.58,39.51
		c-1.74,2.61-3.8,6.52-7.47,5.5c-3.77-1.05-3.31-5.24-3.33-8.58c-0.01-2.68,0.12-5.3,1.33-7.79c0.46-0.95,1.66-2.27,0.35-3.1
		c-1.38-0.87-2.44,0.61-3.31,1.5c-5.16,5.27-7.95,11.83-9.77,18.84c-2.14,8.23-2.2,16.47,0.83,24.51c1.77,4.71,4.73,8.36,10.01,9.58
		c2.99,0.69,4.64,0.26,4.95-3.36c0.56-6.72,2.61-13.03,6.73-18.52c3.07-4.09,6.79-7.36,11.87-8.59c1.29-0.31,3.69-1.32,3.13,1.93
		c-2.28,13.22-5.55,26.15-14.37,36.7c-6.82,8.16-14.14,8.12-22.92,0.51c-11.25-9.74-19.07-22-26.42-34.8
		c-11-19.18-10.89-39.82-9.13-60.65c1.92-22.7,8.31-44.1,21.88-62.8c5.88-8.11,12.95-15.09,21.83-20.06
		c1.43,1.55,0.1,2.64-0.24,3.75c-1.71,5.61-0.06,10.77,5.19,13.01c6.64,2.84,10.32,8.15,13.49,14.08
		c7.5,14.02,10.42,29.35,12.53,44.88c1.98,14.57,1.6,29.23,1.04,43.87c-0.16,4.31-0.62,8.63-1.23,12.9
		c-0.26,1.81-0.34,4.05-3.16,4.37c-11.65,1.31-16.62,9.87-20.51,19.37c-0.99,2.41-1.2,5.17-1.5,7.81c-0.43,3.79-2.52,3.81-5.16,2.42
		c-3.13-1.64-5.02-4.53-5.91-7.75c-3.3-11.89-2.19-23.35,4.07-34.14C7193.26,7031.75,7193.73,7031.52,7194.2,7031.12z"/>
	<path class="st6" d="M7277.76,7065.68c12.32-34.46,39.05-54.78,70.22-70.05c16.79-8.22,34.95-11.77,53.81-7.09
		c0.61,0.15,1.21,0.37,2.03,0.62c-0.58,1.69-2.1,1.66-3.13,2.26c-4.9,2.87-7.56,7.53-5.77,11.95c3.53,8.77,1.43,17.01-1.59,25.21
		c-3.59,9.73-9.21,18.39-14.79,27.05c-0.81,5.81-5.18,9.5-8.57,13.6c-10.83,13.11-23.01,24.91-36.3,35.54
		c-3.05,2.44-5.42,2.65-9.23,0.44c-10.57-6.09-20.82-3.05-30.5,2.95c-2.14,1.33-3.95,4.52-6.84,2.33c-2.55-1.94-2.75-5.07-2.16-8.24
		c1.88-9.97,8.81-16.15,16.46-21.6c3.76-2.68,8.08-4.61,12.63-5.82c1.17-0.31,2.41-0.52,3.23,0.54c1.04,1.35,0.13,2.48-0.73,3.54
		c-2.15,2.63-5.27,4.59-5.09,8.73c0.12,2.73,1.01,3.7,3.81,3.91c9.59,0.7,17.12-3.24,23.5-9.91c7.8-8.15,11.36-18.1,12.29-29.19
		c1-11.96,8.56-19.27,18.48-25.53c-15.88,3.61-28.47,11.24-37.27,24.64c-0.93,1.41-1.28,3.07-1.77,4.65
		c-1.02,3.31-0.53,6.37,2.18,8.65c2.7,2.27,5.32,0.49,7.89-0.64c1.88-0.82,3.07-2.55,4.78-3.58c1.05-0.64,2.12-1.06,3.22-0.17
		c0.87,0.71,1.04,1.73,0.77,2.73c-3.31,12.3-16.3,29.66-32.57,28.29c-1.74-0.15-4.04,0.66-4.83-1.56c-0.77-2.18-0.88-4.51,0.75-6.62
		c2.36-3.04,5.2-5.61,8.01-8.54c-7.22-1.31-13.07,2.02-18.54,5.53c-8.24,5.28-15.26,11.8-17.25,22.13
		c-0.33,1.71-0.26,3.31,0.22,4.91c1.39,4.6,3.22,5.2,7,2.3c8.85-6.77,18.54-9.49,29.46-6.06c2.05,0.64,4.19,1.5,4.67,3.99
		c0.42,2.2-1.24,3.34-2.76,4.35c-9.03,6.02-18.35,11.54-29.07,13.94c-17.8,3.97-22.73-3.52-24.25-17.42
		c-1.48-13.54,1.53-26.73,5.18-39.72C7275.71,7067.44,7276.41,7066.26,7277.76,7065.68z"/>
	<path class="st5" d="M7123.07,7208.32c3.56,10.19,11.12,13.57,21.73,14.25c-10.58,5.35-19.95,9.88-29.14,14.78
		c-38.39,20.47-73.84,45.07-105.14,75.44c-4.4,4.27-10.39,4.12-15.81,5.12c-24.07,4.42-47.45,2.06-69.63-8.6
		c-34.89-16.76-52.91-55.75-43.13-92.74c0.12-0.44,0.53-0.8,1.08-1.58c2.46,7.91,4.62,15.57,8.13,22.72
		c13.71,27.97,35.49,43.81,67.23,44.54c2.67,0.06,4.62,0.59,6.35,2.88c2.59,3.44,6.64,4.14,10.71,4.5
		c15.16,1.34,29.42-2.74,43.4-7.72c30.68-10.94,58.92-26.31,83.8-47.5C7110.94,7227.34,7118.38,7219.54,7123.07,7208.32z"/>
	<path class="st5" d="M7140.53,7151.04c-4.19,9.7-2.16,17.33,3.27,24.91c-8.07-2.66-16.11-5.4-24.2-7.97
		c-32.76-10.4-66.21-17.51-100.47-20.65c-10.61-0.97-21.21-2.02-31.88-1.76c-2.48,0.06-4.53-0.75-6.55-2
		c-24.06-14.94-42.7-34.57-51.78-61.88c-12.54-37.72,1.96-73.93,34.8-94.77c0.36-0.23,0.88-0.19,1.89-0.39
		c-2.68,5.54-5.43,10.57-7.62,15.84c-7.84,18.87-10.25,38.14-3.36,57.88c3.57,10.24,9.5,19.02,17.07,26.71
		c1.83,1.86,3.07,3.56,2.65,6.49c-0.73,5.06,2.09,8.98,5.33,12.39c11.47,12.07,25.87,19.76,40.81,26.45
		c27.38,12.25,56.01,20.13,85.89,22.94C7117.48,7156.28,7128.69,7156.01,7140.53,7151.04z"/>
	<path class="st5" d="M7151.17,7261.29c9.97,4.05,17.65,1.54,25.25-5.35c-3.4,10.38-6.52,19.59-9.43,28.86
		c-8.92,28.45-15.19,57.46-18.65,87.08c-1.64,14.05-3.11,28.12-2.86,42.29c0.04,2.27-0.54,4.3-1.7,6.16
		c-15.82,25.36-36.47,44.86-65.85,53.42c-38.82,11.32-74.34-7.03-92.35-38.53c4.05,2.13,7.25,3.93,10.55,5.54
		c20.85,10.19,42.36,13.57,64.77,5.78c10.22-3.55,18.95-9.6,26.53-17.28c1.49-1.5,2.74-2.49,5.15-1.9c3.46,0.84,6.51-0.93,9.33-2.72
		c5.72-3.64,10.05-8.69,13.85-14.2c16.87-24.49,26.72-51.94,33.62-80.58c3.28-13.59,5.78-27.33,6.08-41.38
		C7155.68,7279.63,7155.23,7270.85,7151.17,7261.29z"/>
	<path class="st5" d="M7208,7278.41c10.41-3.37,13.79-10.72,14.58-21.45c3.61,7.24,6.49,13.09,9.43,18.9
		c21.19,41.8,47.01,80.39,79.72,114.13c4.87,5.03,5.1,11.37,6.13,17.43c3.63,21.42,2.04,42.45-5.87,62.84
		c-15.19,39.17-55.74,59.71-96.88,48.83c1.82-1.86,4.16-1.96,6.25-2.59c19.65-5.88,36.64-15.73,48.6-32.93
		c8.55-12.3,12.14-26.14,12.23-40.98c0.01-2.33,0.67-3.9,2.56-5.48c3.51-2.92,4.62-7.1,4.89-11.59
		c1.18-19.53-5.19-37.44-12.36-55.01c-9.28-22.73-21.05-44.18-36.29-63.54C7232.05,7295.62,7222.62,7284.68,7208,7278.41z"/>
	<path class="st5" d="M7187.35,6882.96c-9.33,2.73-17.92,5.28-25.89,9.49c-26.62,14.05-41.7,35.44-42.09,66.15
		c-0.03,2.46-0.38,4.23-2.62,5.88c-4.8,3.54-5.03,9.17-5.25,14.46c-0.51,12.33,2.73,24.1,6.57,35.6
		c10.43,31.21,25.7,59.88,46.67,85.32c7.61,9.24,15.79,18.08,28.72,23.18c-10.22,3.52-13.7,10.93-15.3,20.04
		c-4.47-8.82-8.82-17.69-13.42-26.44c-16.23-30.89-35.51-59.76-58.05-86.41c-5.69-6.73-11.71-13.19-17.81-19.56
		c-2.25-2.36-2.92-5.12-3.61-8.02c-5.98-25.17-4.84-49.89,5.32-73.82c13.63-32.08,43.69-50.84,78.48-49.15
		C7174.97,6879.99,7180.97,6880.52,7187.35,6882.96z"/>
	<path class="st6" d="M7278.54,7192.55c-4.69-9.16-7.69-11.18-19.54-13.61c0.01-2.03,1.83-2.15,3.04-2.72
		c46.3-21.57,88.57-49.19,125.75-84.28c4.99-4.71,10.31-6.8,16.53-7.9c28.47-5.03,55.76-2.37,80.73,13.33
		c29.28,18.41,43.04,53.36,34.57,86.72c-0.16,0.61-0.46,1.19-0.92,2.34c-1.55-2.11-1.58-4.24-2.16-6.15
		c-7.76-25.53-21.66-45.91-47.4-56.27c-8.29-3.34-17-4.58-25.88-4.61c-2.66-0.01-4.55-0.57-6.4-2.82c-3.87-4.71-9.7-4.83-15.15-4.97
		c-10.08-0.26-19.87,1.96-29.41,4.94c-36.34,11.35-69.25,28.96-97.73,54.44C7287.98,7176.9,7282.56,7183.82,7278.54,7192.55z"/>
	<path class="st6" d="M7435.54,7415.16c6.64-11.66,12.03-23.24,14.09-36.07c3.96-24.78-2.17-46.49-19.89-64.56
		c-1.86-1.9-2.5-3.53-2.41-6.38c0.21-6.86-4.37-11.59-9.08-15.87c-15.45-14.06-34.17-22.31-53.4-29.51
		c-23.3-8.72-47.25-14.95-72.2-16.36c-9.43-0.53-19-0.96-28.08,2.75c-1.89,0.77-3.24,0.4-2.38-1.85c3.17-8.3-0.4-14.86-5.98-22.08
		c6.56,2.2,12.12,4.07,17.67,5.93c42.66,14.33,86.43,23.48,131.42,24.45c14.79,0.32,24.31,7.86,33.98,16.18
		c19.32,16.62,32.89,36.95,36.57,62.79c4.29,30.13-6.27,54.5-29.3,73.81c-2.93,2.45-6.16,4.54-9.27,6.76
		C7437.06,7415.28,7436.67,7415.16,7435.54,7415.16z"/>
	<path class="st6" d="M7415.19,6964.94c-8.73-3.67-16.8-7.93-25.64-10.44c-28.08-7.99-53.35-3.62-74.85,17.07
		c-2.06,1.98-3.9,3.21-6.9,2.86c-4.88-0.57-8.58,2.15-11.94,5.25c-12.64,11.67-20.24,26.66-27.1,42.03
		c-11.32,25.37-18.9,51.87-21.95,79.49c-1.42,12.85-1.74,25.88,3.16,39.16c-9.29-3.89-16.81-1.73-24.3,3.41
		c2.07-6.24,4.1-12.5,6.21-18.73c11.36-33.53,18.46-67.99,22.23-103.14c1.2-11.24,1.48-22.57,2.17-33.86
		c0.13-2.15,0.01-4.29,1.23-6.28c15.53-25.35,35.98-45.03,65.08-53.53c35.66-10.42,69.45,2.29,90.36,32.96
		C7413.78,6962.37,7414.45,6963.68,7415.19,6964.94z"/>
	<path class="st6" d="M7519.02,7210.51c-0.3,9.35-4.67,16.52-11.61,22.25c-10.29,8.49-22.55,12.72-35.27,15.74
		c-26.52,6.3-53.44,6.64-80.43,4.52c-28.73-2.26-57.07-7.11-84.92-14.53c-35.13-9.35-69.16-21.58-101.5-39.87
		c3.68-2.71,8.1-2.44,11.57-4.4c5.98-3.36,10.4-1.56,15.33,2.89c13.54,12.25,29.63,19.47,47.8,21.82c4.15,0.54,8.29,0.29,12.44-0.23
		c6.88-0.87,12.34-3.83,15.73-10.03c0.82-1.5,1.32-2.82,3.08-0.85c9.94,11.12,23.65,14.65,37.31,17.5
		c26.83,5.6,53.86,5.47,80.85,0.71c2.31-0.41,4.27,0.13,6.31,0.81c12.42,4.16,25.15,6.3,38.27,5.98
		C7492.41,7232.36,7509.03,7228.35,7519.02,7210.51z"/>
	<path class="st6" d="M7192.23,7200.76c0.56,1.42,2.69,1.32,3.04,3.21c-5.67,1.83-11.31,3.58-16.91,5.49
		c-2.3,0.78-3.67-0.27-5.23-1.72c-14.5-13.51-31.43-22.12-51.12-25c-5.65-0.83-11.35-0.61-16.85,0.93
		c-6.07,1.7-10.66,5.37-12.93,11.66c-16.36-16.35-37.34-19.38-58.31-21.84c-20.25-2.38-40.54-1.69-60.66,1.87
		c-3.63,0.64-6.9-0.5-10.25-1.5c-15.82-4.73-31.84-6.75-48.29-3.86c-13.55,2.38-24.97,7.84-31.51,21.07
		c-1.03-4.55,0.05-8.82,3.44-13.94c6.26-9.46,15.62-14.78,25.78-18.79c15.13-5.97,31-8.66,47.18-9.79
		c54.25-3.78,106.73,5.6,158.35,21.31c20.54,6.25,40.5,14,59.77,23.49c3.55,1.75,7.05,3.58,10.57,5.37
		C7189.69,7199.23,7191.67,7198.64,7192.23,7200.76z"/>
	<path class="st7" d="M6969.43,7419.44c-5.47-4.8-7.22-10.24-7.91-16.08c-1.05-8.97,0.8-17.5,4.18-25.83
		c8.8-21.7,23.16-39.52,39.31-55.98c38.88-39.65,84.38-69.88,134.4-93.55c18.08-8.56,36.64-15.9,55.93-21.29
		c1.05-0.29,2.22-1.42,3.24-0.36c1.17,1.22-0.39,2.05-0.86,2.98c-2.58,5.03-4.15,11.26-8.12,14.7c-4.04,3.49-10.8,1.25-16.33,2.32
		c-17.34,3.35-33.27,9.51-46.12,22.03c-6.6,6.44-11.02,13.9-7.54,23.67c0.81,2.29-0.74,2.19-2.03,2.16
		c-19.34-0.47-34.02,10.19-48.51,20.77c-18.83,13.74-34.48,30.72-47.99,49.68c-2.57,3.6-6.74,4.77-10.31,6.76
		c-11,6.13-20.82,13.69-29.02,23.26C6970.88,7387.32,6963.74,7401.1,6969.43,7419.44z"/>
	<path class="st6" d="M7203.42,7205.6c2.17,6.33,4.29,12.23,6.18,18.2c0.7,2.21-1.09,3.67-2.44,5.11
		c-11.7,12.57-19.44,27.22-23.45,43.92c-1.54,6.42-1.95,12.9-1.03,19.33c1.1,7.7,4.3,14.29,12.51,17.07
		c-18.81,19.86-21.05,44.87-22.7,69.79c-1.1,16.6-0.25,33.27,2.68,49.77c1.27,7.14-2.96,13.52-4.21,20.35
		c-3.3,17.96-4.47,35.71,3.7,52.81c3.55,7.43,4.92,8.72,17.22,17.45c-8.34-0.06-14.52-3.6-19.93-8.68
		c-9.45-8.89-13.95-20.53-17.31-32.61c-7.32-26.31-7.87-53.16-6.34-80.23c1.71-30.18,6.84-59.77,14.27-88.99
		c9.05-35.6,21.73-69.83,39.41-102.1C7202.12,7206.53,7202.47,7206.37,7203.42,7205.6z"/>
	<path class="st6" d="M7189.48,7196.56c-4.25-1.09-7.47-4.19-11.42-5.85c-2.07-0.88-1.5-2.75-1.56-4.32
		c-0.83-19.45-6.53-37.24-17.88-53.15c-3.04-4.26-6.8-7.81-11.07-10.7c-5.12-3.46-10.73-5.36-17.01-3.21
		c-1.84,0.63-3.15,0.77-3.09-1.96c0.37-16.61-7.94-29.88-16.91-42.77c-14.39-20.69-32.11-38.1-52.7-52.61
		c-2.41-1.7-3.84-4.06-5.19-6.57c-7.22-13.43-15.82-25.73-27.93-35.35c-14.76-11.72-23.29-14.09-41.92-10.96
		c2.07-3.37,5.07-4.86,8.24-5.93c10.46-3.51,20.68-2.04,30.73,1.76c23.04,8.71,41.54,24.03,58.97,40.83
		c25.79,24.86,47.02,53.37,65.8,83.7c19.42,31.35,35.3,64.44,46.58,99.64c0.8,2.49,1.42,5.03,2.12,7.54
		c1.47,2.27-0.23,2.18-1.71,2.33C7191.56,7199.2,7190.94,7197.19,7189.48,7196.56z"/>
	<path class="st7" d="M7418.06,7433c-7.45,7.81-16.76,8.29-26.32,6.85c-16.25-2.46-29.96-10.72-42.9-20.2
		c-38.33-28.07-66.84-64.88-92.02-104.54c-21.47-33.83-38.5-69.77-50.11-108.19c-0.36-1.19-1.62-2.67-0.57-3.69
		c1.41-1.37,2.69,0.36,3.93,0.98c2.37,1.2,4.56,3.14,7.06,3.64c7.85,1.57,7.84,7.4,8.42,13.49c1.93,20.04,8.48,38.27,22.71,53.04
		c6.86,7.13,14.95,11.16,25.19,7.31c0.7,26.69,16.57,45.6,32.49,64.29c10.59,12.43,22.87,23.21,36.19,32.73
		c2.62,1.88,4.66,4.1,6.26,6.94c5.55,9.86,11.36,19.54,19.42,27.65C7381.64,7427.23,7396.56,7438.31,7418.06,7433z"/>
	<path class="st6" d="M7198.25,7196.83c-2.13-6.4-3.83-11.97-5.86-17.41c-1.09-2.91,0.19-4.68,1.95-6.63
		c11.84-13.08,20.04-28.09,23.64-45.46c1.58-7.59,1.8-15.2-0.33-22.73c-1.38-4.87-4.27-8.59-8.83-10.9
		c-1.59-0.81-3.38-1.51-1.18-3.44c11.69-10.27,14.88-24.58,17.84-38.73c5.49-26.21,4.99-52.61,0.78-78.96
		c-0.45-2.84,0.09-5.23,0.9-7.76c5.47-17.26,7.72-34.85,3.98-52.71c-2.65-12.65-8.43-23.5-22.46-29.54
		c10.8-0.2,17.72,4.43,23.53,11.09c10.1,11.57,14.08,25.87,17.19,40.4c5.38,25.15,5.03,50.6,3.3,76.09
		c-2.07,30.49-7.76,60.36-15.74,89.8C7227.89,7133.39,7215.74,7165.65,7198.25,7196.83z"/>
	<path class="st7" d="M7379.47,7057.49c6.63-6.47,15.76-9,22.97-14.7c11.07-8.76,21.28-18.15,27.48-31.1
		c4.06-8.47,6.01-17.26,2.71-26.54c-0.2-0.57-0.03-1.27-0.03-2.93c5.65,6,7.55,12.53,7.66,19.59c0.21,13.81-5.18,25.95-12.01,37.51
		c-17.1,28.92-40.9,51.78-66.84,72.52c-40.28,32.2-84.45,57.71-132.84,75.73c-7.78,2.9-15.78,5.2-23.69,7.73
		c-0.58,0.19-1.27,0.02-2.75,0.02c3.12-6.06,5.96-11.59,8.8-17.12c0.98-1.9,2.76-1.44,4.38-1.54c15.25-1.02,29.93-4.13,43.26-12.05
		c0.46-2.29,2.44-2.94,4.14-3.96c7.41-4.4,13.6-9.99,17.22-18.01c1.58-3.51,2.78-6.96,1.25-10.95c-1.06-2.76-0.95-5.37,3.31-5.24
		c12.35,0.38,22.85-5.01,32.96-11.13c23.4-14.17,42.47-33.09,58.97-54.73C7377.3,7059.46,7377.78,7057.86,7379.47,7057.49z"/>
	<path class="st6" d="M7217.45,7514.6c17.98-12.59,28.11-29.86,31.63-51.17c1.08-6.57,1.3-13.23-0.28-19.81
		c-1.4-5.82,1.09-11.2,2.1-16.69c2.92-16.01,3.5-32.05,1.86-48.21c-0.13-1.32-0.19-2.66-0.22-3.98c-0.01-0.42,0.2-0.84,0.5-1.98
		c13.58,18.34,23.47,37.61,26.25,59.96c2.05,16.49-0.41,32.31-9.31,46.52C7257.77,7498.73,7239.35,7509.42,7217.45,7514.6z"/>
	<path class="st6" d="M6886.95,7217.56c10.98,16.18,26.34,25.61,44.82,30.43c8,2.08,16.18,2.31,24.29,1.29
		c4.73-0.59,9.17-0.5,13.79,0.58c17.83,4.16,35.89,4.78,54.07,2.97c1.29-0.13,2.59-0.17,5.07-0.33c-5.74,5.07-11.31,8.44-16.97,11.7
		c-16.85,9.69-34.73,16.33-54.39,15.76c-31.66-0.91-52.63-17.7-65.45-45.81C6889.78,7228.89,6887.67,7223.52,6886.95,7217.56z"/>
	<path class="st6" d="M7148.03,7028.23c-8.65-11.31-15.71-23.59-20.52-37.06c-6.29-17.63-8.48-35.64-2.69-53.86
		c7.27-22.88,23.52-37.21,45.13-46.19c4.52-1.88,9.02-3.93,15.36-4.27c-11.42,7.33-19.49,16.15-25.02,27.19
		c-7.28,14.51-10.69,29.68-7.39,45.87c0.47,2.28-0.03,4.32-0.52,6.37c-4.79,19.79-5.85,39.78-3.35,59.97
		C7149.09,7026.88,7149.27,7027.6,7148.03,7028.23z"/>
	<path class="st6" d="M6990.79,7434.66c5.59-0.34,10.23,1.21,15.02,0.95c24.33-1.32,44.36-10.67,58.61-30.95
		c1.23-1.75,2.86-2.8,4.52-3.79c17.23-10.24,31.76-23.49,44.2-39.13c0.48-0.61,1.17-1.05,2.54-2.24c-0.41,8.44-2.3,15.55-4.38,22.61
		c-4.51,15.32-11.24,29.54-21.88,41.62c-20.98,23.82-51.05,31.12-80.73,19.76C7002.71,7441.2,6996.63,7439.1,6990.79,7434.66z"/>
	<path class="st6" d="M6967.31,6990c-0.65,7.65-1.76,13.82-1.12,20.14c2.33,22.71,11.73,41.3,30.88,54.43
		c1.69,1.16,2.7,2.9,3.72,4.62c10.13,17.09,23.4,31.42,38.72,43.94c0.89,0.73,1.91,1.32,2.22,3.03
		c-20.98-2.85-40.35-9.37-57.62-21.57c-27.91-19.71-38.22-53.26-26.26-85.28C6960.21,7002.99,6962.63,6996.74,6967.31,6990z"/>
	<path class="st6" d="M7372.22,7149.09c5.82-4.78,11.32-8.35,17.02-11.6c15.66-8.92,32.19-15.23,50.45-15.77
		c32.23-0.95,54.82,15.68,68.29,42.97c2.65,5.38,4.72,10.99,6.38,16.75c0.12,0.42-0.12,0.95-0.31,2.21
		c-5.42-6.96-10.86-13.12-17.69-17.86c-16.62-11.53-34.82-16.27-54.89-12.74c-3.7,0.65-6.87-0.94-10.23-1.63
		c-18.6-3.81-37.29-4.67-56.13-2.34C7374.51,7149.15,7373.88,7149.09,7372.22,7149.09z"/>
	<path class="st6" d="M7285.37,7041.72c1.83-12.48,4.81-24.46,9.65-35.95c6.63-15.73,15.81-29.63,29.91-39.71
		c19.92-14.24,41.67-16.01,64.59-9.01c7.43,2.27,14.47,5.41,20.88,10.16c-3.36-0.34-6.71-0.91-10.08-0.97
		c-25.54-0.46-46.72,8.53-62.27,29.28c-2.07,2.76-4.67,4.57-7.5,6.32c-15.98,9.92-29.67,22.42-41.56,36.94
		c-0.74,0.9-1.5,1.78-2.31,2.62C7286.49,7041.59,7286.08,7041.56,7285.37,7041.72z"/>
	<path class="st6" d="M7435.27,7410.11c0.61-8.53,0.72-16.71-0.73-24.92c-3.5-19.7-12.86-35.81-29.1-47.66
		c-1.96-1.43-3.55-2.99-4.73-4.98c-10.11-17.1-23.27-31.5-38.7-43.91c-0.88-0.71-2.02-1.26-1.77-3.12c10,1.57,19.83,3.63,29.33,7.15
		c19.77,7.33,37.05,18.05,48.54,36.35c10.36,16.5,12.65,34.4,8.37,53.23c-1.7,7.47-4.35,14.64-7.63,21.57
		C7437.81,7406,7436.47,7408.02,7435.27,7410.11z"/>
	<path class="st5" d="M7015.15,7351.67c-4.83,10.57-10.46,20.39-12.32,31.75c-0.7,4.28-0.98,8.59,0.43,12.83
		c2.54,7.65-0.96,12.74-8.94,13.27c-1.58,0.11-4.28-1.23-4.47,1.54c-0.16,2.26,2.53,2.26,4.16,2.75
		c19.17,5.78,37.81,3.29,56.12-3.76c3.2-1.23,6.34-2.63,10.36-4.31c-2.65,5.42-6.6,8.32-10.29,11.16
		c-18.22,13.99-38.31,20.2-61.27,14.01c-18.11-4.88-23.43-20.92-16.66-36.98c6.44-15.28,17.91-26.24,31.38-35.32
		C7007.36,7356.1,7011.31,7353.96,7015.15,7351.67z"/>
	<path class="st5" d="M7351.1,7385.07c9.09,4.9,16.65,9.45,25.23,11.85c7.47,2.1,14.81,3.45,22.44,0.29
		c4.46-1.85,9.8,3.11,10.7,9.12c0.26,1.76-1.37,4.78,1.29,5.1c3.15,0.37,2.93-3.27,3.47-5.22c5.51-19.95,2.46-39.15-5.48-57.86
		c-0.77-1.82-1.51-3.67-2.24-5.51c-0.05-0.12,0.06-0.31,0.25-1.13c5.67,3.61,9.74,8.42,13.18,13.74
		c11.91,18.44,17.13,37.84,9.99,59.7c-4.44,13.59-17.66,19.82-31.52,15.68c-14.92-4.45-25.58-14.52-35.03-26.2
		C7358.83,7398.97,7354.84,7392.93,7351.1,7385.07z"/>
	<path class="st5" d="M7385.03,7050.49c4.4-8.29,8.76-15.17,11.17-22.92c2.58-8.3,4.63-16.57,0.83-25.27
		c-1.88-4.3,2.79-8.81,9.07-10.24c1.79-0.41,5.19,1.86,5.25-1.53c0.05-2.68-3.49-2.56-5.57-3.18c-19.84-5.87-38.83-2.24-57.42,5.38
		c-2.08,0.85-4.1,1.81-6.46,2.24c4.77-7.22,11.19-12.52,18.52-16.67c16.94-9.6,34.78-13.06,53.75-6.95
		c14.31,4.61,20.56,16.41,16.77,31c-2.68,10.32-8.57,18.75-15.74,26.29C7406.83,7037.43,7397.09,7044.45,7385.03,7050.49z"/>
	<path class="st5" d="M6995.18,7059.64c-13.86-10.26-22.05-24.18-25.45-40.83c-2.4-11.76-1.74-23.23,2.7-34.76
		c4.26-11.07,17.23-16.71,28.73-13.7c17.85,4.67,29.78,16.96,40.23,31.1c3.22,4.36,5.83,9.17,8.13,14.5
		c-3.6-1.9-7.17-3.85-10.81-5.68c-8.37-4.2-16.97-7.62-26.53-7.82c-2.54-0.05-4.96,0.34-7.37,1.07c-7.21,2.19-12.89-2.05-12.84-9.61
		c0.01-1.55,1.15-3.71-1.36-4.02c-2.25-0.28-2.28,2.12-2.75,3.56c-5.64,17.14-4.14,34.1,1.52,50.89
		C6991.13,7049.5,6993.24,7054.54,6995.18,7059.64z"/>
	<path class="st5" d="M7245.95,7446.25c2.1,6.01,1.6,11.78,0.6,17.46c-4.11,23.37-15.33,41.71-37.76,51.6
		c-10.84,4.78-22.5,0.71-29.1-9.3c-8.13-12.33-9.46-26.13-8.7-40.27c0.49-9.06,2.02-18.04,5.63-27.38
		c2.41,7.02,4.2,13.35,6.73,19.37c3.84,9.13,8.52,17.65,18.38,22.02c4.49,1.99,5.06,8.39,1.71,13.08c-0.67,0.94-1.59,1.69-2.41,2.52
		c-0.95,0.96-2.12,1.92-0.88,3.35c1.02,1.17,2.16,0.35,3.18-0.13c9.47-4.51,17.44-10.95,24.15-18.97
		c7.78-9.3,13.28-19.87,17.48-31.18C7245.24,7447.68,7245.62,7446.98,7245.95,7446.25z"/>
	<path class="st5" d="M7224.87,6964.21c-1.92-6.04-3.57-11.41-5.35-16.74c-2.34-7.03-6.03-13.33-10.65-19.08
		c-1.9-2.36-4.29-4.19-7.01-5.52c-6.54-3.2-7.9-8.56-3.61-14.48c0.48-0.67,1.15-1.2,1.72-1.8c0.89-0.94,2.39-1.88,1.37-3.31
		c-1.13-1.59-2.69-0.66-4.01,0.04c-7.88,4.12-14.9,9.38-20.88,16c-8.46,9.38-14.78,20.04-19.17,31.87
		c-0.56,1.51-1.37,2.93-2.21,4.69c-3.35-16.77,2.79-37.79,15.15-52.63c5.15-6.19,11.02-11.31,18.21-15.26
		c15.19-8.34,29.51-1.74,36.26,12.81c7.99,17.22,6.81,34.96,3.13,52.84C7227.14,6956.97,7226,6960.21,7224.87,6964.21z"/>
	<path class="st5" d="M6963.06,7176.82c-6.42,2.16-11.98,3.71-17.28,5.9c-9.9,4.1-19.41,8.67-24.27,19.4
		c-2.12,4.69-8.81,4.65-13.92,0.72c-1.38-1.06-2.35-4.26-4.57-2.37c-1.81,1.54,0.25,3.73,1.13,5.34
		c10.09,18.62,26.21,30.07,45.37,37.87c1.92,0.78,3.82,1.58,5.61,2.87c-7.99,1.7-15.82,1.02-23.46-1.06
		c-20.33-5.54-36.7-16.19-45.3-36.4c-4.64-10.91-1.41-21.97,8.59-28.91c12.42-8.62,26.56-10.04,41.08-9.12
		C6944.92,7171.64,6953.73,7173.05,6963.06,7176.82z"/>
	<path class="st5" d="M7445.63,7154.96c27.55-2.23,50.22,6.87,65.79,30.13c14.16,21.15,1.44,36.2-16.51,42.19
		c-16.76,5.58-38.87,4.3-57.29-2.58c4.24-1.27,7.75-2.31,11.25-3.39c8.49-2.61,16.56-6.04,23.53-11.72
		c2.62-2.13,4.78-4.59,6.29-7.64c3.43-6.93,9.4-8.04,15.27-2.89c0.37,0.33,0.69,0.72,1.06,1.06c0.95,0.88,1.96,2.4,3.31,1.51
		c1.7-1.12,0.41-2.73-0.19-4c-5.69-12.1-14.67-21.3-25.57-28.74C7464.19,7163.16,7455.09,7158.81,7445.63,7154.96z"/>
	<path class="st8" d="M7227.42,7212.68c8.97,4.69,18.18,6.54,25.23,12.76c9.77,8.63,10.62,16.67,2.86,27.03
		c-0.51,0.68-1.27,1.28-0.76,2.12c0.86,1.43,2.43,1.04,3.63,0.83c7.48-1.34,14.9-0.51,22.38,0.02
		c16.07,1.15,45.79,11.44,58.78,21.07c-8.27-2.13-15.38-4.37-22.73-5.57c-7.25-1.18-14.53-1.98-21.87-1.52
		c-7.44,0.47-14.34,2.21-19.94,7.83c-4.48,4.5-10.04,4.71-15.74,2.15c-7.95-3.57-13.21-9.97-17.67-17.09
		C7232.3,7247.46,7227.54,7231.29,7227.42,7212.68z"/>
	<path class="st5" d="M7049.89,7244.97c6.83-4.22,13.87-7.57,20.06-12.25c7.98-6.03,15.83-12.13,20.89-21.09
		c2.12-3.75,2.86-7.72,3.28-11.9c0.74-7.44,4.81-11.96,12.03-13.98c9.92-2.77,19.5-0.68,28.92,2.18
		c13.07,3.97,24.57,10.87,34.87,19.82c2.5,2.17,3.77,3.77-0.75,5.08c-7.16,2.09-13.6,6.21-21.15,7.34
		c-10.05,1.5-19.54-3.16-22-11.19c-0.48-1.55-0.4-3.27-0.63-4.9c-0.17-1.21,0.75-2.92-1.03-3.42c-1.31-0.37-1.96,1-2.68,1.88
		c-17.67,21.47-40.92,34.01-67.1,41.8C7053.25,7244.75,7051.94,7245.9,7049.89,7244.97z"/>
	<path class="st5" d="M7188.54,7227.9c-5.05,9.7-6.77,20.83-15.73,28.07c-7.11,5.74-15.98,8.56-23.36-0.07
		c-0.71-0.84-1.57-1.97-2.93-1.15c-1.05,0.63-0.66,1.7-0.55,2.7c2.73,25.31-3.59,48.8-14.52,71.33c-1.57,3.24-2.88,6.68-6.27,10.22
		c3.53-11.87,6.23-22.79,6.89-34.1c0.66-11.17,0-21.82-8.38-30.74c-5.55-5.9-3.66-15.33,3.99-23.19
		c11.31-11.62,25.54-17.78,41.05-21.34C7175.01,7228.19,7181.35,7226.8,7188.54,7227.9z"/>
	<path class="st5" d="M7174.4,7189.11c-7.59-3.46-14.18-6.21-20.52-9.43c-5.8-2.95-10.24-7.45-12.42-13.75
		c-2-5.8-1.43-11.11,3.34-15.56c0.98-0.91,3.04-1.62,2.11-3.44c-0.72-1.4-2.43-0.61-3.68-0.51c-28.4,2.29-54.3-5.75-78.89-19.13
		c-1.15-0.63-2.16-1.51-3.17-2.49c10.73,3.51,21.62,6.14,32.86,7.1c12.54,1.07,24.61,0.78,34.43-9.06
		c3.37-3.38,8.03-2.65,12.29-1.14c8.68,3.08,14.09,9.87,18.85,17.17C7169.3,7153.76,7173.39,7170.35,7174.4,7189.11z"/>
	<path class="st5" d="M7244.5,7350.96c-3.92-6.91-7.64-13.96-12.47-20.29c-5.87-7.69-11.97-15.14-20.53-20.08
		c-2.63-1.52-5.48-3.02-8.43-2.82c-14.05,0.96-18.65-10.26-18.5-20.84c0.2-14.03,4.49-27.09,11.51-39.22
		c3.6-6.21,7.99-11.84,12.72-17.22c1.35-1.54,2.57-2.35,3.4,0.32c2.32,7.44,6.39,14.27,7.69,22.08c0.88,5.3,0.13,10.36-2.2,15.05
		c-2.73,5.5-7.31,8.45-13.65,8.32c-1.17-0.03-2.78-1.2-3.43,0.73c-0.47,1.4,0.86,2,1.74,2.71c17.81,14.44,29.39,33.2,37.59,54.27
		c2.09,5.38,3.77,10.91,5.64,16.37C7245.22,7350.56,7244.86,7350.76,7244.5,7350.96z"/>
	<path class="st9" d="M7156.8,7051.39c6.72,11.13,13.41,22.2,22.66,31.46c6.53,6.54,13.87,11.09,23.56,11.54
		c7.74,0.36,12.82,6.97,13.54,16.58c1.28,17.2-4.79,32.33-13.52,46.64c-2.95,4.83-6.38,9.35-10.28,13.48c-1.15,1.22-2.51,2.39-3.3,0
		c-3.06-9.23-8.64-17.68-8.05-28.06c0.62-11.03,5.74-16.65,16.78-17.49c0.93-0.07,2.2,0.38,2.59-0.86c0.52-1.67-1.04-2.28-2.01-3.07
		c-16.02-13.01-27.02-29.66-35.01-48.45C7160.78,7066.15,7158.06,7059.04,7156.8,7051.39z"/>
	<path class="st7" d="M7257.23,7163.34c-12.35,5.54-25.03,9.9-38.69,10.75c-5.76,0.36-5.9,0.26-3.5-5.01
		c3.63-7.96,5.92-16.62,12.84-22.8c8.13-7.27,15.63-7.63,23.94-0.87c0.85,0.69,1.47,2.24,2.77,1.73c1.66-0.65,0.88-2.33,0.76-3.53
		c-2.62-27.34,5.01-52.34,17.43-76.23c0.74-1.42,1.13-3.22,3.06-3.7c0.91,4.29-1,8.18-2.01,12.12c-3.2,12.5-4.62,25.07-2.32,37.87
		c0.78,4.34,2.68,8.1,5.97,11.18c4.34,4.06,5.93,10.98,3.5,16.45C7276.22,7151.99,7268.1,7159.18,7257.23,7163.34z"/>
	<path class="st7" d="M7350.31,7156.78c-8.56,5.16-17.12,10.21-24.77,16.64c-5.74,4.81-11.18,9.87-14.92,16.52
		c-1.92,3.41-3.1,6.87-3.21,10.85c-0.22,7.82-3.7,12.08-11.24,14.63c-11.67,3.94-22.71,0.57-33.61-3.09
		c-11.98-4.02-22.39-10.84-31.75-19.27c-1.08-0.97-3.52-2.28-0.3-3.43c9.61-3.43,18.58-9.11,29.47-8.06
		c10.13,0.98,15.5,6.5,15.82,16.72c0.03,1-0.31,2.1,0.89,2.56c1.42,0.55,2.14-0.63,2.84-1.5c8.32-10.33,18.32-18.72,29.6-25.6
		C7321.93,7165.95,7335.58,7160.11,7350.31,7156.78z"/>
	<path class="st9" d="M7137.38,7149.37c-6.22,3.01-12.81,4.09-19.57,4c-25.73-0.34-50.41-6.18-74.57-14.56
		c-16.37-5.68-32.22-12.54-46.84-21.99c-5.76-3.72-11.08-7.95-15.55-13.17c-2.63-3.07-4.6-6.44-4.22-11.08
		c2.98,0.9,4.65,3.07,6.8,4.51c18.16,12.22,38.26,19.03,59.93,21.44c2.55,0.28,4.72,1.2,6.87,2.62c18.76,12.4,38.85,21.67,61.1,25.9
		C7119.92,7148.68,7128.61,7148.89,7137.38,7149.37z"/>
	<path class="st10" d="M7149.3,7264.57c3.87,8.21,4.37,16.97,3.76,25.71c-2.67,38.23-13.86,74-31.95,107.67
		c-4.34,8.07-9.58,15.63-16.43,21.8c-3.23,2.91-6.81,5.78-12.36,5.26c3.67-5.72,7.28-10.83,10.35-16.24
		c8.87-15.67,13.96-32.59,15.87-50.47c0.35-3.26,1.65-6.03,3.47-8.68c12.37-18.05,20.77-37.78,25.05-59.25
		C7148.74,7281.87,7148.96,7273.26,7149.3,7264.57z"/>
	<path class="st10" d="M7119.75,7209.73c-2.52,6-6.11,10.6-10.23,14.81c-19.61,20.06-43.27,34.13-68.44,45.84
		c-16.33,7.6-33.11,14.01-51.05,16.68c-6.59,0.98-13.26,1.56-19.73-0.89c-1.68-0.64-3.98-1.26-3.62-3.45
		c0.29-1.77,2.51-1.05,3.9-1.25c21.44-3.13,40.38-12.09,57.42-25.13c4.53-3.46,9.33-5.49,14.78-6.67c28.71-6.22,54.54-18,75.25-39.5
		C7118.22,7209.98,7118.63,7210.01,7119.75,7209.73z"/>
	<path class="st10" d="M7281.54,7191.85c4.32-9.35,11.04-15.99,18.14-22.23c20.59-18.08,44.09-31.49,69.22-42.13
		c15.35-6.5,31.04-12.03,47.82-13.52c6.62-0.59,13.23-0.61,19.12,4.81c-3.15,1.76-6.15,1.56-8.93,2.06
		c-20.65,3.68-38.66,13.03-55.12,25.65c-3.14,2.41-6.46,4.06-10.26,4.82c-30.06,6.01-56.84,18.39-78.67,40.41
		C7282.76,7191.8,7282.53,7191.75,7281.54,7191.85z"/>
	<path class="st10" d="M7252.04,7136.45c-2.83-4.21-3.19-8.96-3.44-13.66c-0.81-15.58,1.29-30.9,4.69-46.03
		c6.27-27.91,15.62-54.67,30.81-79.11c4.39-7.07,9.18-13.93,16.38-18.57c2.5-1.62,5.11-3.05,8.94-2.3
		c-5.56,7.59-10.56,14.98-14.33,23.09c-6.5,13.98-10.6,28.65-12.31,43.97c-0.3,2.73-1.25,5.1-2.79,7.36
		c-12.1,17.62-20.64,36.83-25.1,57.73C7252.96,7117.93,7252.02,7127.12,7252.04,7136.45z"/>
	<path class="st8" d="M7191.83,7119.92c-5.86-2.52-10.7-6.13-15.05-10.45c-21.59-21.48-36.44-47.35-48.56-74.94
		c-6.97-15.87-12.58-32.19-14.35-49.6c-0.55-5.41,0.05-10.63,1.99-15.67c0.46-1.2,1.36-2.6,2.84-2.41c1.48,0.19,1.11,1.9,1.25,2.9
		c3.18,23.81,13.85,44.2,28.4,62.88c3.63,4.66,3.43,10.68,4.78,16.09c6.5,26.05,18.09,49.23,37.1,68.45
		c0.58,0.58,1.08,1.24,1.6,1.88C7191.89,7119.12,7191.83,7119.32,7191.83,7119.92z"/>
	<path class="st10" d="M7208.24,7281.44c6.04,1.61,9.55,4.71,13.03,7.69c13.59,11.62,23.57,26.2,32.87,41.22
		c14.38,23.22,25.45,47.89,31.66,74.6c1.52,6.52,2.09,13.14,1.79,19.84c-0.13,3.07-1.11,5.89-2.52,8.54
		c-0.42,0.78-1.48,1.72-2.23,1.71c-1.22-0.01-1.1-1.42-1.23-2.37c-3.14-23.59-13.21-44.08-27.76-62.63
		c-4.18-5.33-4.13-12.17-5.76-18.38C7241.16,7325.22,7229.08,7301.7,7208.24,7281.44z"/>
	<path class="st7" d="M7424.72,7309.49c-8.62-6.71-17.06-11.93-26.23-15.84c-12.77-5.45-26.01-9.25-39.88-10.55
		c-3.09-0.29-5.83-1.37-8.33-3.07c-25.66-17.41-53.69-27.57-85.98-27.64c4.98-3.19,9.7-3.52,14.39-3.71
		c16.24-0.66,32.21,1.38,47.99,5.15c27.14,6.49,53.28,15.5,77.15,30.32c6.4,3.97,12.28,8.54,17.11,14.39
		C7423.3,7301.4,7424.92,7304.53,7424.72,7309.49z"/>
	<path class="st11" d="M7257.23,7163.34c4.85-3.73,10.31-6.62,14.71-10.97c3.24-3.2,5.9-6.77,7.58-10.99
		c1.96-4.95,2.06-9.96-1.88-13.93c-6.88-6.93-8.44-15.43-8.54-24.67c-0.14-13.47,2.92-26.33,6.71-39.1c0.65,0.67,1.29,1.33,1.93,2
		c-2.99,11.93-6.38,23.78-6.21,36.25c0.05,3.5,0.14,6.98,0.85,10.44c2.13,10.36,7.87,14.52,18.2,12.69
		c12.39-2.2,23.07-8.28,33.32-15.23c2.47-1.67,1.52-2.74-0.47-3.88c-6.97-3.99-14.11-3.08-21.2-0.6c-3.78,1.32-7.37,3.22-10.13,6.19
		c-2.8,3-4.89,1.88-6.79-0.82c-2.39-3.39-2.43-7.15-1.27-10.97c4.28-14.21,24.17-28.14,38.95-27.31c1.14,0.06,2.67-0.19,2.87,1.29
		c0.19,1.48-1.36,1.64-2.44,1.99c-4.54,1.48-7.55,4.84-9.95,8.66c-2.39,3.81-1.14,5.83,3.29,5.97c5.12,0.16,9.84-1.12,14.19-3.91
		c8.75-5.61,15.78-15.98,16.98-25.49c-2.69,1.8-5.16,3.63-7.81,5.17c-2.68,1.56-5.6,2.46-8.42,0.28c-2.94-2.27-3.74-5.47-3.17-8.95
		c1.02-6.21,4.86-10.95,9.08-15.17c9.03-9.04,19.92-14.89,32.49-17.46c1.43-0.29,3.28-1.05,3.95,0.77c0.73,1.97-1.27,2.3-2.6,2.88
		c-11.46,5.01-17.93,13.25-19.16,26.19c-1.22,12.82-6.86,23.87-17.29,32.03c-5.47,4.28-11.65,6.31-18.59,6.04
		c-6.03-0.23-8.11-3.86-5.26-9.3c1.46-2.79,3.66-5.07,6.05-7.55c-11.98,1.35-26.65,12.39-30.45,23.45
		c-0.48,1.39-0.67,2.94-0.71,4.42c-0.06,2.17,0,4.66,1.94,5.91c2.2,1.42,3.53-1.18,5.02-2.15c10.92-7.12,22.08-10.17,33.89-2.23
		c2.32,1.56,3.38-0.1,4.72-1.1c12.15-9.12,22.94-19.69,33.01-31.04c4.97-5.6,9.33-11.65,13.91-17.54c0.31,0.62,0.62,1.24,0.93,1.86
		c-6.32,11.1-15.12,20.2-23.99,29.15c-13.27,13.39-27.71,25.38-44.75,33.84c-8.22,4.08-16.55,7.9-26.12,7.14
		c-1.89-0.15-3.31-0.1-2.37,2.61c2.67,7.64-0.37,14-4.95,19.85c-5.01,6.4-11.31,11.2-18.73,14.54
		C7258.13,7164.19,7257.68,7163.77,7257.23,7163.34z"/>
	<path class="st12" d="M7206.6,7435.68c0-2.45-0.04-4.91,0.01-7.36c0.12-5.75-1.8-10.71-5.47-15.12c-3.4-4.09-3.61-15.91-0.52-20.28
		c2.02-2.85,5.41-2.97,8.11-0.17c2.52,2.61,3.62,5.94,4.34,9.38C7215.04,7411.55,7212.39,7427.12,7206.6,7435.68z"/>
	<path class="st13" d="M7436.63,7194.67c-9.58-1.12-18.06,0.65-25.61,7.08c-3.62,3.08-14.96,1.84-18.58-1.16
		c-2.65-2.2-2.32-6,0.89-8.55c3.38-2.68,7.43-3.59,11.63-3.95C7416.12,7187.13,7426.62,7189.39,7436.63,7194.67z"/>
	<path class="st14" d="M7037.77,7371.47c2.45-2.23,5.11-4.28,7.31-6.73c3.14-3.5,5.35-7.48,5.65-12.44
		c0.39-6.5,7.23-14.1,13.57-15.55c3.52-0.81,5.95,1.15,6.3,5.11c0.37,4.14-1.78,7.39-3.99,10.5
		C7060.6,7360.86,7049.27,7368.79,7037.77,7371.47z"/>
	<path class="st12" d="M7194.2,6965.47c0.29,4.32,0.31,8.57,1.12,12.82c0.65,3.4,1.88,6.42,4.12,8.91
		c5.82,6.48,4.29,13.59,1.71,20.58c-1.45,3.91-5.97,4.11-8.86,0.71c-2.8-3.29-3.81-7.29-4.16-11.52
		C7187.23,6985.89,7188.99,6975.36,7194.2,6965.47z"/>
	<path class="st15" d="M7030.91,7038.43c1.9,2.23,3.61,4.66,5.73,6.65c3.59,3.38,7.84,5.43,12.93,5.67
		c5.94,0.28,14.18,8,15.14,13.98c0.6,3.7-1.79,6.15-5.95,6.05c-4.06-0.09-7.33-2.18-10.31-4.56c-8.84-7.09-15.16-15.97-18.88-26.58
		C7030.02,7039.23,7030.46,7038.83,7030.91,7038.43z"/>
	<path class="st12" d="M6966.24,7207.25c4.7-1.07,9.54,0.02,14.15-1.6c2.21-0.78,4.67-1.28,6.24-2.96
		c5.96-6.37,12.95-4.54,19.95-2.85c2.04,0.49,3.69,1.73,4.02,3.96c0.37,2.53-0.68,4.6-2.77,6c-2.36,1.58-4.95,2.92-7.75,3.26
		C6988.31,7214.5,6976.92,7213.24,6966.24,7207.25z"/>
	<path class="st12" d="M7370.97,7362.26c-2.26-2.07-4.48-4.18-6.79-6.19c-3.33-2.9-7.1-4.76-11.61-5.12
		c-6.69-0.55-14.04-6.85-15.84-13.36c-1.06-3.84,1.9-7.16,6.15-6.86c3.45,0.24,6.38,1.91,9.04,3.88
		C7361.34,7341.59,7367.67,7350.82,7370.97,7362.26z"/>
	<path class="st16" d="M7203.56,7200.81c-0.25,1.67-1.13,2.7-2.88,2.67c-1.76-0.02-2.78-1.26-2.8-2.75
		c-0.02-1.55,1.11-2.77,2.84-2.68C7202.35,7198.14,7203.41,7199.08,7203.56,7200.81z"/>
	<path class="st17" d="M7189.48,7196.56c1.94-0.94,3.77,4.27,5.77,0.1c3.69,4.81-2.78,2.17-3.01,4.1c-1.55-0.23-2.81-1.02-3.95-2.05
		C7189.54,7198.47,7190.2,7197.9,7189.48,7196.56z"/>
	<path class="st18" d="M7362.89,7029.92c-7.15,6.19-12.28,13.05-12.75,22.91c-0.21,4.42-9.71,11.97-14.07,12.26
		c-3.89,0.25-6.36-3.6-5.09-8.29c1.44-5.32,4.88-9.42,8.76-13.12C7346.38,7037.36,7353.74,7032.17,7362.89,7029.92z"/>
</g>
</svg>
